<svg xmlns="http://www.w3.org/2000/svg" viewBox="0 0 1600 900"><defs><linearGradient id="wall" x1="0" y1="0" x2="1" y2="1"><stop stop-color="#0b1f33"/><stop offset=".55" stop-color="#15191f"/><stop offset="1" stop-color="#050608"/></linearGradient><radialGradient id="spot" cx="29%" cy="36%" r="45%"><stop stop-color="#c7a86b" stop-opacity=".26"/><stop offset="1" stop-color="#c7a86b" stop-opacity="0"/></radialGradient></defs><rect width="1600" height="900" fill="url(#wall)"/><rect width="1600" height="900" fill="url(#spot)"/><path d="M0 650h1600v250H0z" fill="#111"/><path d="M1030 165h310v650h-310z" fill="#0d1119"/><path d="M1070 190h18v590h-18M1125 190h18v590h-18M1180 190h18v590h-18M1235 190h18v590h-18M1290 190h18v590h-18" stroke="#2d241d" stroke-width="8"/><text x="355" y="330" fill="#c7a86b" font-family="Georgia,serif" font-size="58" letter-spacing="16">ABRAHAMS</text><text x="395" y="382" fill="#c7a86b" font-family="Georgia,serif" font-size="26" letter-spacing="9">BY CIBELLA GROUP</text><path d="M1188 285c52 30 92 106 106 208l-44 208h-125l-43-208c14-102 54-178 106-208z" fill="#071744"/><path d="M1188 285l-34 205 34 210 34-210z" fill="#f6f2ea" opacity=".92"/><path d="M1015 710h440v70h-440z" fill="#101010"/><path d="M1045 690h380v25h-380z" fill="#c7a86b" opacity=".45"/></svg>