<svg xmlns="http://www.w3.org/2000/svg" viewBox="0 0 1600 900"><defs><linearGradient id="ivory" x1="0" y1="0" x2="1" y2="1"><stop stop-color="#fbf7ef"/><stop offset="1" stop-color="#d8c6a6"/></linearGradient></defs><rect width="1600" height="900" fill="#fbf7ef"/><rect width="980" height="900" fill="url(#ivory)"/><rect x="1020" width="240" height="900" fill="#111"/><path d="M1055 0v900M1110 0v900M1165 0v900M1220 0v900" stroke="#252015" stroke-width="12"/><rect x="1275" y="80" width="245" height="640" fill="#1c1c1c"/><path d="M1275 190h245M1275 360h245M1275 530h245" stroke="#c7a86b" stroke-opacity=".35" stroke-width="6"/><text x="740" y="405" text-anchor="middle" fill="#071744" font-family="Georgia,serif" font-size="62" letter-spacing="20">ABRAHAMS</text><text x="740" y="455" text-anchor="middle" fill="#071744" font-family="Georgia,serif" font-size="25" letter-spacing="9">BY CIBELLA GROUP</text><path d="M70 740h500v95H70z" fill="#171717"/><rect x="120" y="530" width="120" height="220" rx="4" fill="#171717"/><path d="M180 535c-20-140-5-250 40-340M180 535c50-125 100-220 175-285M180 535c-95-95-125-185-95-270" stroke="#29331e" stroke-width="8" fill="none"/><path d="M1190 700c160-140 350-130 430 0v120h-430z" fill="#d7cdbc"/></svg>