<svg xmlns="http://www.w3.org/2000/svg" viewBox="0 0 1600 900"><defs><linearGradient id="bg" x1="0" y1="0" x2="1" y2="1"><stop stop-color="#071744"/><stop offset=".55" stop-color="#111927"/><stop offset="1" stop-color="#05070d"/></linearGradient><linearGradient id="gold" x1="0" y1="0" x2="1" y2="0"><stop stop-color="#8f7040"/><stop offset=".5" stop-color="#d5b476"/><stop offset="1" stop-color="#6f542e"/></linearGradient><pattern id="threads" width="18" height="18" patternUnits="userSpaceOnUse"><path d="M0 9h18M9 0v18" stroke="#fff" stroke-opacity=".035"/></pattern></defs><rect width="1600" height="900" fill="url(#bg)"/><rect width="1600" height="900" fill="url(#threads)"/><path d="M-80 760C260 540 530 590 840 360c230-170 470-290 840-170v760H-80z" fill="#0b1f33" opacity=".85"/><path d="M350 930C650 610 890 610 1130 335c150-172 310-230 550-175" fill="none" stroke="#20365d" stroke-width="68" opacity=".9"/><path d="M480 905C760 660 970 610 1200 370c130-136 250-210 480-190" fill="none" stroke="url(#gold)" stroke-width="4"/><path d="M720 860c170-120 315-180 456-340" stroke="#c7a86b" stroke-dasharray="6 14" stroke-width="3" fill="none" opacity=".65"/></svg>